<svg width="12" height="10" viewBox="0 0 12 10" fill="none" xmlns="http://www.w3.org/2000/svg">
<path d="M10.9453 0.173828H1.05469C0.473859 0.173828 0 0.647172 0 1.22852V8.25977C0 8.83914 0.47175 9.31445 1.05469 9.31445H10.9453C11.5247 9.31445 12 8.8427 12 8.25977V1.22852C12 0.649141 11.5282 0.173828 10.9453 0.173828ZM10.7997 0.876953L6.02236 5.65429L1.20373 0.876953H10.7997ZM0.703125 8.11417V1.37076L4.08935 4.72795L0.703125 8.11417ZM1.2003 8.61133L4.58866 5.22297L5.77594 6.40005C5.91337 6.53631 6.13516 6.53587 6.27204 6.39897L7.42969 5.24132L10.7997 8.61133H1.2003ZM11.2969 8.11415L7.92687 4.74414L11.2969 1.37411V8.11415Z" fill="#F6762C"/>
</svg>
